<?xml version="1.0" encoding="iso-8859-1"?>
<!-- Uploaded to: SVG Repo, www.svgrepo.com, Generator: SVG Repo Mixer Tools -->
<svg fill="#000000" height="800px" width="800px" version="1.1" id="Layer_1" xmlns="http://www.w3.org/2000/svg" xmlns:xlink="http://www.w3.org/1999/xlink" 
	 viewBox="0 0 512.001 512.001" xml:space="preserve">
<g>
	<g>
		<path d="M380.958,113.751h-40.402h-5.315V93.313c0-6.375-5.169-11.543-11.543-11.543H280.24c0.723-4.03,1.085-8.132,1.085-12.293
			C281.326,31.167,250.158,0,211.848,0S142.37,31.167,142.37,69.478c0,4.16,0.362,8.263,1.085,12.293h-43.46
			c-6.375,0-11.543,5.168-11.543,11.543v20.439h-5.315H42.736c-6.375,0-11.543,5.168-11.543,11.543v375.162
			c0,6.375,5.168,11.543,11.543,11.543h338.223c6.374,0,11.543-5.168,11.543-11.543V125.296
			C392.502,118.919,387.334,113.751,380.958,113.751z M111.539,125.295v-20.439h47.508c3.92,0,7.574-1.99,9.699-5.285
			c2.126-3.294,2.435-7.442,0.818-11.015c-2.727-6.029-4.108-12.448-4.108-19.08c0-25.58,20.811-46.391,46.391-46.391
			s46.391,20.811,46.391,46.391c0,6.632-1.382,13.051-4.108,19.08c-1.615,3.573-1.307,7.72,0.818,11.015
			c2.125,3.294,5.779,5.285,9.699,5.285h47.507v20.439v21.404H111.539V125.295z M94.682,168.493
			c0.088,0.046,0.184,0.078,0.272,0.122c0.256,0.125,0.516,0.244,0.783,0.35c0.144,0.058,0.291,0.109,0.438,0.16
			c0.255,0.09,0.515,0.17,0.778,0.242c0.152,0.042,0.305,0.083,0.459,0.118c0.283,0.065,0.57,0.114,0.86,0.158
			c0.137,0.021,0.274,0.047,0.413,0.063c0.431,0.049,0.867,0.08,1.31,0.08h223.703c0.443,0,0.88-0.031,1.31-0.08
			c0.14-0.016,0.276-0.043,0.413-0.063c0.29-0.044,0.577-0.094,0.859-0.158c0.156-0.036,0.308-0.077,0.461-0.119
			c0.263-0.072,0.521-0.152,0.776-0.241c0.148-0.052,0.296-0.104,0.44-0.162c0.266-0.105,0.523-0.224,0.778-0.347
			c0.09-0.044,0.187-0.077,0.277-0.124v210.017l-58.459,58.458H94.682V168.493z M54.279,488.913V136.838h17.315v311.673
			c0,6.375,5.168,11.543,11.543,11.543h192.198c3.061,0,5.997-1.217,8.162-3.381l65.22-65.22c2.164-2.164,3.381-5.101,3.381-8.162
			V136.838h17.315v352.075H54.279z"/>
	</g>
</g>
<g>
	<g>
		<path d="M288.864,200.904H169.462c-6.375,0-11.543,5.168-11.543,11.543c0,6.375,5.169,11.543,11.543,11.543h119.402
			c6.374,0,11.543-5.168,11.543-11.543C300.407,206.072,295.238,200.904,288.864,200.904z"/>
	</g>
</g>
<g>
	<g>
		<path d="M142.99,204.285c-0.531-0.531-1.12-1.016-1.755-1.431c-0.623-0.416-1.293-0.773-1.985-1.062
			c-0.704-0.289-1.431-0.519-2.159-0.658c-1.489-0.3-3.024-0.3-4.513,0c-0.739,0.138-1.466,0.369-2.159,0.658
			c-0.704,0.289-1.374,0.646-1.997,1.062c-0.635,0.416-1.224,0.9-1.755,1.431c-2.147,2.147-3.382,5.125-3.382,8.161
			s1.235,6.014,3.382,8.161c0.531,0.531,1.12,1.016,1.755,1.431c0.623,0.427,1.293,0.773,1.997,1.062
			c0.693,0.289,1.42,0.519,2.159,0.67c0.739,0.15,1.501,0.219,2.251,0.219c0.75,0,1.512-0.069,2.263-0.219
			c0.727-0.15,1.454-0.381,2.159-0.67c0.693-0.289,1.362-0.635,1.985-1.062c0.635-0.416,1.224-0.9,1.755-1.431
			c2.147-2.147,3.382-5.125,3.382-8.161S145.137,206.432,142.99,204.285z"/>
	</g>
</g>
<g>
	<g>
		<path d="M288.864,321.044H169.462c-6.375,0-11.543,5.168-11.543,11.543c0,6.375,5.168,11.543,11.543,11.543h119.402
			c6.374,0,11.543-5.168,11.543-11.543S295.238,321.044,288.864,321.044z"/>
	</g>
</g>
<g>
	<g>
		<path d="M146.153,330.328c-0.15-0.739-0.369-1.466-0.658-2.159c-0.289-0.693-0.646-1.362-1.062-1.985
			c-0.427-0.635-0.912-1.224-1.443-1.755c-2.678-2.69-6.661-3.913-10.412-3.163c-0.739,0.15-1.466,0.369-2.159,0.658
			c-0.704,0.289-1.374,0.646-1.997,1.062c-0.635,0.427-1.224,0.9-1.755,1.443c-0.531,0.531-1.016,1.12-1.431,1.755
			c-0.416,0.623-0.773,1.293-1.062,1.985s-0.508,1.42-0.658,2.159c-0.15,0.75-0.231,1.501-0.231,2.263
			c0,0.75,0.081,1.512,0.231,2.251c0.15,0.739,0.369,1.466,0.658,2.159c0.289,0.704,0.646,1.374,1.062,1.997
			c0.416,0.635,0.9,1.224,1.431,1.755c2.147,2.147,5.125,3.382,8.161,3.382c3.036,0,6.014-1.235,8.161-3.382
			c0.531-0.531,1.016-1.12,1.443-1.755c0.416-0.623,0.773-1.293,1.062-1.997c0.289-0.693,0.508-1.42,0.658-2.159
			c0.15-0.739,0.219-1.501,0.219-2.251C146.373,331.829,146.303,331.079,146.153,330.328z"/>
	</g>
</g>
<g>
	<g>
		<path d="M254.233,260.974H134.831c-6.375,0-11.543,5.168-11.543,11.543s5.168,11.543,11.543,11.543h119.402
			c6.375,0,11.543-5.168,11.543-11.543S260.608,260.974,254.233,260.974z"/>
	</g>
</g>
<g>
	<g>
		<path d="M300.176,270.256c-0.149-0.727-0.368-1.454-0.657-2.159c-0.289-0.693-0.648-1.362-1.062-1.985
			c-0.416-0.635-0.9-1.224-1.431-1.755c-0.531-0.531-1.121-1.016-1.756-1.443c-0.623-0.416-1.293-0.762-1.996-1.05
			c-0.694-0.289-1.42-0.519-2.159-0.658c-1.489-0.3-3.013-0.3-4.513,0c-0.727,0.138-1.454,0.369-2.159,0.658
			c-0.693,0.289-1.362,0.635-1.985,1.05c-0.635,0.427-1.225,0.912-1.756,1.443s-1.016,1.12-1.443,1.755
			c-0.414,0.623-0.773,1.293-1.062,1.985c-0.289,0.704-0.507,1.431-0.657,2.159c-0.15,0.75-0.219,1.512-0.219,2.263
			s0.07,1.512,0.219,2.251s0.368,1.466,0.657,2.159c0.289,0.704,0.648,1.374,1.062,1.997c0.427,0.635,0.912,1.224,1.443,1.755
			s1.121,1.016,1.756,1.431c0.623,0.416,1.293,0.773,1.985,1.062c0.704,0.289,1.431,0.508,2.159,0.658
			c0.75,0.15,1.512,0.231,2.263,0.231c0.75,0,1.513-0.081,2.251-0.231c0.738-0.15,1.466-0.369,2.159-0.658
			c0.703-0.289,1.372-0.646,1.996-1.062c0.635-0.416,1.225-0.9,1.756-1.431c0.531-0.531,1.016-1.12,1.431-1.755
			c0.414-0.623,0.773-1.293,1.062-1.997c0.289-0.693,0.507-1.42,0.657-2.159c0.15-0.739,0.231-1.501,0.231-2.251
			S300.326,271.006,300.176,270.256z"/>
	</g>
</g>
<g>
	<g>
		<path d="M469.264,113.751h-49.471c-6.374,0-11.543,5.168-11.543,11.543v57.717v268.962c0,1.902,0.47,3.775,1.369,5.451
			l24.736,46.174c2.009,3.752,5.919,6.093,10.174,6.093c4.255,0,8.166-2.341,10.174-6.093l24.735-46.174
			c0.898-1.677,1.369-3.55,1.369-5.451V183.012v-57.717C480.808,118.919,475.64,113.751,469.264,113.751z M444.529,473.702
			l-13.193-24.626V194.555h26.384v254.521h0.001L444.529,473.702z M457.721,171.469h-26.384v-34.63h26.384V171.469z"/>
	</g>
</g>
<g>
	<g>
		<path d="M240.707,388.75h-57.717c-6.375,0-11.543,5.168-11.543,11.543c0,6.375,5.168,11.543,11.543,11.543h57.717
			c6.375,0,11.543-5.168,11.543-11.543C252.25,393.918,247.082,388.75,240.707,388.75z"/>
	</g>
</g>
</svg>